<svg width="57" height="57" viewBox="0 0 57 57" fill="none" xmlns="http://www.w3.org/2000/svg">
<path d="M52.9286 0H4.05871C1.81942 0 0 1.84487 0 4.1096V52.8904C0 55.1551 1.81942 57 4.05871 57H52.9286C55.1679 57 57 55.1551 57 52.8904V4.1096C57 1.84487 55.1679 0 52.9286 0ZM17.2272 48.8571H8.77902V21.6549H17.24V48.8571H17.2272ZM13.0031 17.9397C10.2931 17.9397 8.10469 15.7386 8.10469 13.0413C8.10469 10.344 10.2931 8.14286 13.0031 8.14286C15.7004 8.14286 17.9016 10.344 17.9016 13.0413C17.9016 15.7513 15.7132 17.9397 13.0031 17.9397ZM48.8953 48.8571H40.4471V35.625C40.4471 32.4696 40.3835 28.4109 36.0576 28.4109C31.6554 28.4109 30.981 31.8462 30.981 35.396V48.8571H22.5328V21.6549H30.6375V25.3701H30.752C31.8844 23.2326 34.6453 20.9806 38.7549 20.9806C47.3049 20.9806 48.8953 26.617 48.8953 33.9455V48.8571Z" fill="url(#paint0_linear_3_440)"/>
<defs>
<linearGradient id="paint0_linear_3_440" x1="28.5" y1="0" x2="28.5" y2="57" gradientUnits="userSpaceOnUse">
<stop stop-color="#00FFDE"/>
<stop offset="1" stop-color="#00FFDE" stop-opacity="0.46"/>
</linearGradient>
</defs>
</svg>
