<svg width="150" height="150" viewBox="0 0 150 150" fill="none" xmlns="http://www.w3.org/2000/svg">
<rect width="150" height="150" fill="#090015"/>
<path d="M49.0234 118V47.2H26.8234V30.4H89.2234V47.2H67.0234V118H49.0234Z" fill="url(#paint0_linear_43_36)"/>
<path d="M97.3176 118.99C90.4176 118.99 84.9276 117.13 80.8476 113.41C76.8276 109.63 74.8176 104.56 74.8176 98.2H88.3176C88.3176 100.96 89.1276 103.18 90.7476 104.86C92.3676 106.48 94.5576 107.29 97.3176 107.29C100.078 107.29 102.268 106.51 103.888 104.95C105.508 103.33 106.318 101.14 106.318 98.38V64.9H91.4676V52.3H119.818V98.38C119.818 104.74 117.808 109.78 113.788 113.5C109.768 117.16 104.278 118.99 97.3176 118.99Z" fill="url(#paint1_linear_43_36)"/>
<defs>
<linearGradient id="paint0_linear_43_36" x1="58" y1="17" x2="84.8391" y2="175.171" gradientUnits="userSpaceOnUse">
<stop stop-color="#00BFA6"/>
<stop offset="1" stop-color="#00BFA6" stop-opacity="0"/>
</linearGradient>
<linearGradient id="paint1_linear_43_36" x1="100" y1="42" x2="120.129" y2="160.628" gradientUnits="userSpaceOnUse">
<stop stop-color="#00BFA6"/>
<stop offset="1" stop-color="#00BFA6" stop-opacity="0"/>
</linearGradient>
</defs>
</svg>
