<svg width="57" height="58" viewBox="0 0 57 58" fill="none" xmlns="http://www.w3.org/2000/svg">
<path d="M50.8929 0H6.10714C2.73549 0 0 2.78348 0 6.21429V51.7857C0 55.2165 2.73549 58 6.10714 58H50.8929C54.2645 58 57 55.2165 57 51.7857V6.21429C57 2.78348 54.2645 0 50.8929 0ZM35.2815 49.6754C34.2127 49.8696 33.8183 49.1964 33.8183 48.6397C33.8183 47.9406 33.8438 44.3674 33.8438 41.4804C33.8438 39.4607 33.1821 38.179 32.406 37.5058C37.1136 36.975 42.0757 36.3147 42.0757 28.042C42.0757 25.6857 41.2487 24.5076 39.9 22.9929C40.1163 22.4362 40.8415 20.1446 39.6837 17.167C37.9152 16.6103 33.8692 19.4844 33.8692 19.4844C32.1897 19.0054 30.3703 18.7594 28.5763 18.7594C26.7824 18.7594 24.9629 19.0054 23.2835 19.4844C23.2835 19.4844 19.2375 16.6103 17.469 17.167C16.3112 20.1317 17.0237 22.4232 17.2527 22.9929C15.904 24.5076 15.2679 25.6857 15.2679 28.042C15.2679 36.2759 20.0136 36.975 24.7212 37.5058C24.1105 38.0625 23.5634 39.0205 23.3725 40.3929C22.1638 40.9496 19.0721 41.9076 17.2272 38.5933C16.0694 36.5478 13.9828 36.3795 13.9828 36.3795C11.9217 36.3536 13.8429 37.7 13.8429 37.7C15.217 38.3473 16.1839 40.833 16.1839 40.833C17.4181 44.6781 23.3217 43.3835 23.3217 43.3835C23.3217 45.183 23.3471 48.1089 23.3471 48.6397C23.3471 49.1964 22.9654 49.8696 21.8839 49.6754C13.4866 46.8143 7.60848 38.6839 7.60848 29.1812C7.60848 17.2964 16.5402 8.27277 28.2201 8.27277C39.9 8.27277 49.3661 17.2964 49.3661 29.1812C49.3788 38.6839 43.6788 46.8272 35.2815 49.6754ZM22.8 41.7652C22.5583 41.817 22.3292 41.7134 22.3038 41.5451C22.2783 41.3509 22.4438 41.1826 22.6855 41.1308C22.9272 41.1049 23.1562 41.2085 23.1817 41.3768C23.2199 41.5451 23.0545 41.7134 22.8 41.7652ZM21.5913 41.6487C21.5913 41.817 21.4004 41.9594 21.146 41.9594C20.8661 41.9853 20.6752 41.8429 20.6752 41.6487C20.6752 41.4804 20.8661 41.3379 21.1205 41.3379C21.3623 41.312 21.5913 41.4545 21.5913 41.6487ZM19.8482 41.5062C19.7973 41.6746 19.5429 41.7522 19.3266 41.6746C19.0848 41.6228 18.9194 41.4286 18.9703 41.2603C19.0212 41.092 19.2757 41.0143 19.492 41.0661C19.7464 41.1437 19.9118 41.3379 19.8482 41.5062ZM18.2833 40.8071C18.1688 40.9496 17.927 40.9237 17.7362 40.7295C17.5453 40.5612 17.4944 40.3152 17.6217 40.1987C17.7362 40.0562 17.9779 40.0821 18.1688 40.2763C18.3342 40.4446 18.3978 40.7036 18.2833 40.8071ZM17.1254 39.629C17.0109 39.7067 16.7946 39.629 16.6547 39.4348C16.5147 39.2406 16.5147 39.0205 16.6547 38.9299C16.7946 38.8134 17.0109 38.904 17.1254 39.0982C17.2654 39.2924 17.2654 39.5254 17.1254 39.629ZM16.2984 38.3732C16.1839 38.4897 15.9931 38.425 15.8531 38.2955C15.7132 38.1272 15.6877 37.933 15.8022 37.8424C15.9167 37.7259 16.1076 37.7906 16.2475 37.9201C16.3875 38.0884 16.4129 38.2826 16.2984 38.3732ZM15.446 37.4152C15.3951 37.5317 15.2297 37.5576 15.0897 37.467C14.9243 37.3893 14.848 37.2469 14.8989 37.1304C14.9498 37.0527 15.0897 37.0138 15.2551 37.0786C15.4205 37.1692 15.4969 37.3116 15.446 37.4152Z" fill="url(#paint0_linear_3_442)"/>
<defs>
<linearGradient id="paint0_linear_3_442" x1="28.5" y1="0" x2="28.5" y2="58" gradientUnits="userSpaceOnUse">
<stop stop-color="#00FFDE"/>
<stop offset="1" stop-color="#00FFDE" stop-opacity="0.46"/>
</linearGradient>
</defs>
</svg>