<?xml version="1.0" encoding="utf-8"?>
<!-- Generator: Adobe Illustrator 25.0.0, SVG Export Plug-In . SVG Version: 6.00 Build 0)  -->
<svg version="1.1" id="Camada_1" xmlns="http://www.w3.org/2000/svg" xmlns:xlink="http://www.w3.org/1999/xlink" x="0px" y="0px"
	 viewBox="0 0 831 502.9" style="enable-background:new 0 0 831 502.9;" xml:space="preserve">
<style type="text/css">
	.st0{clip-path:url(#SVGID_2_);}
	.st1{fill:#2F2E41;}
	.st2{fill:#090015;}
	.st3{fill:#00FFDE;}
	.st4{fill:#FFB8B8;}
	.st5{fill:#3F3D56;}
	.st6{fill:#FFFFFF;}
</style>
<g>
	<defs>
		<rect id="SVGID_1_" width="830.6" height="711.7"/>
	</defs>
	<clipPath id="SVGID_2_">
		<use xlink:href="#SVGID_1_"  style="overflow:visible;"/>
	</clipPath>
	<g class="st0">
		<path class="st1" d="M68.3,169.9H455v126.9h-14.6V330l-33.2-33.2H68.3V169.9z"/>
		<path class="st2" d="M444.3,182.3H79.1v101.5h365.2V182.3z"/>
		<path class="st3" d="M284.3,211.9H108.5v5.3h175.8V211.9z"/>
		<path class="st1" d="M414.9,230.4H108.5v5.3h306.4V230.4z"/>
		<path class="st1" d="M414.6,248.8H108.5v5.3h306.1V248.8z"/>
		<path class="st1" d="M386.7,339.8H0v126.9h14.6v33.2l33.2-33.2h338.8V339.8z"/>
		<path class="st2" d="M375.9,352.1H10.7v101.5h365.2V352.1z"/>
		<path class="st3" d="M218.9,382.8H43v5.3h175.8V382.8z"/>
		<path class="st1" d="M349.5,401.2H43v5.3h306.4V401.2z"/>
		<path class="st1" d="M349.2,419.7H43v5.3h306.1V419.7z"/>
		<path class="st1" d="M386.7,0H0v126.9h14.6v33.2l33.2-33.2h338.8V0z"/>
		<path class="st2" d="M375.9,12.4H10.7v101.5h365.2V12.4z"/>
		<path class="st3" d="M218.9,43H43v5.3h175.8V43z"/>
		<path class="st1" d="M349.5,61.4H43v5.3h306.4V61.4z"/>
		<path class="st1" d="M349.2,79.9H43v5.3h306.1V79.9z"/>
		<path class="st4" d="M681.5,486.3l-15.6,0l-7.4-60.3l23.1,0L681.5,486.3z"/>
		<path class="st1" d="M685.5,501.4l-50.4,0l0-1.6c0-1,0.1-2.1,0.3-3.1c2.3-9.7,10.5-15.6,19.3-15.6h0l30.8,0L685.5,501.4z"/>
		<path class="st4" d="M659.5,440.9l-14.5,5.7l-29-53.4l21.5-8.4L659.5,440.9z"/>
		<path class="st1" d="M668.8,453.6L621.8,472l-0.6-1.5c-0.4-1-0.7-2-0.8-3c-1.4-9.8,4-18.3,12.2-21.6l0,0l28.6-11.3L668.8,453.6z"
			/>
		<path class="st1" d="M654.7,466.7l5-182.9l-22.1,78.4l16,54.4L627,439.1l-27.1-86.3l0-0.2l26.9-142.2l79.6-3.8l0.6,0l0.1,0.6
			c0.1,0.5,7.6,47.7,1.3,81.8c-6.3,34-21.5,178.3-21.7,179.7l-0.1,0.6L654.7,466.7z"/>
		<path class="st3" d="M630.9,221.9l-0.4-0.2l14.8-135.4l0.4-0.1c15-3.8,35.2-3.4,45.9-2.9c1.6,0.1,3.2,0.7,4.4,1.8
			c1.2,1.1,2,2.6,2.3,4.2L716,206.1l-0.1,0.2c-12.3,17.5-31,22.3-47.8,22.3C655.4,228.5,642.8,226.2,630.9,221.9z"/>
		<path class="st5" d="M701.2,261.4l-0.5,0l-9.4-178.5l28.7,6.5c3.1,0.7,5.9,2.6,7.7,5.2c1.8,2.6,2.6,5.9,2.2,9l-3.7,29.7l1.3,52.2
			c0.9,3.2,15.4,56.3,7.3,70.2c-0.4,0.8-1,1.5-1.7,2c-0.7,0.6-1.5,1-2.3,1.2c-7.7,1.9-15.7,2.8-23.6,2.8
			C703.5,261.6,701.3,261.4,701.2,261.4z"/>
		<path class="st5" d="M616.8,262.6c-1.4-0.6-2.6-1.6-3.6-2.7c-1-1.2-1.7-2.5-2.1-4c-1.9-7.5,4.4-17,5.3-18.3l7.6-72.4l-11.3-66.9
			c-0.2-1.1-0.2-2.3,0.1-3.4c0.3-1.1,0.8-2.2,1.5-3.1c0.7-0.9,1.6-1.7,2.6-2.3c1-0.6,2.1-0.9,3.3-1.1l32.3-3.6l-1.6,68.8
			c13.9,46.9-16.3,114.4-16.6,115.1l-0.2,0.4h-0.4C633.5,269.1,629.6,269,616.8,262.6z"/>
		<path class="st4" d="M683.2,67.2c15.2-8.3,20.8-27.3,12.5-42.5c-11-20.1-40.8-23.4-55.6,0.2c-2.3,3.6-3.5,7.9-3.6,12.2
			C636.2,64.8,663.1,78.2,683.2,67.2z"/>
		<path class="st4" d="M704.1,229.1c-0.3-1.7-0.2-3.5,0.3-5.2c0.5-1.7,1.3-3.2,2.5-4.6c1.1-1.3,2.6-2.4,4.2-3.1s3.3-1.1,5.1-1
			l10.8-25.1l16.8,2.9l-15.8,35.2c-0.2,2.9-1.5,5.7-3.7,7.7s-4.9,3.2-7.9,3.3c-2.9,0.1-5.8-0.9-8.1-2.7S704.5,232,704.1,229.1z"/>
		<path class="st5" d="M719.3,206.2l9-53.7L713,127l3.9-36.4l1.3-0.3c0.3-0.1,0.6-0.1,0.9-0.2c5.9-0.7,11.1,2.5,13.4,7.3l25,52.1
			l0.1,0.2L739.5,221L719.3,206.2z"/>
		<path class="st1" d="M688.7,65c0.7,0.2,3.7-3.2,7-7.3c3.5-4.2,6-9.2,7.3-14.5c1.4-5.3,1.6-10.8,0.6-16.2c0-0.2-0.1-0.5-0.1-0.7
			c-1.1-5.2-6-10-11.2-8.9c0.4-4.6-2.7-8.9-6.6-11.3c-3.9-2.4-8.6-3.3-13.1-4.2c-5.2-1-10.4-2-15.7-1.6c-5.1,0.3-10,1.9-14.3,4.6
			c-5.2,3.4-9.3,8.4-11.5,14.3c-2.3,5.8-2.7,12.2-1.1,18.3c6.6-7.5,14.4-15.6,25.7-12.4c2.6,0.8,4.9,2,7,3.7
			c6.9,5.4,10.3,13.3,13.7,21.1c1.7-4.2,7.9-5.8,11.4-2.9c2.3,1.9,3.2,5,3.1,7.9c-0.2,2.9-0.9,5.8-2,8.5"/>
		<path class="st1" d="M684.7,182h-1.5v-6.5c-0.5-3.5-3.4-5.8-6.5-5.8h-18.5c-1.7,0-3.4,0.7-4.6,1.9s-1.9,2.9-1.9,4.6v40.1
			c0,1.7,0.7,3.4,1.9,4.6c1.2,1.2,2.9,1.9,4.6,1.9h18.5c1.7,0,3.4-0.7,4.6-1.9c1.2-1.2,1.9-2.9,1.9-4.6v-27.4h1.5V182z"/>
		<path class="st6" d="M665.1,191.7c4.2,3.2,9-1.6,5.8-5.8C666.7,182.8,661.9,187.5,665.1,191.7z"/>
		<path class="st4" d="M671.2,204.5c-0.7-1.6-1.8-3-3.2-4.1c-1.3-1.1-2.9-1.9-4.6-2.4c-1.7-0.4-3.5-0.5-5.2-0.2
			c-1.7,0.3-3.3,1-4.8,2l-23.2-14.5l-12.2,11.9l33,20c1.9,2.3,4.5,3.8,7.4,4.3c2.9,0.5,5.9-0.1,8.4-1.7c2.5-1.6,4.3-4,5.1-6.8
			C672.7,210.2,672.5,207.2,671.2,204.5z"/>
		<path class="st5" d="M588.4,176.9l21.2-80.1c0.6-2.1,1.9-3.9,3.7-5c1.8-1.1,4-1.6,6.1-1.2l7.3,1.3l7.8,42.7l-15.8,36l28.6,17.1
			l-4,32.1L588.4,176.9z"/>
		<path class="st5" d="M829.1,502.2H454.8c-0.3,0-0.5-0.1-0.7-0.3c-0.2-0.2-0.3-0.4-0.3-0.7c0-0.3,0.1-0.5,0.3-0.7
			c0.2-0.2,0.4-0.3,0.7-0.3h374.3c0.3,0,0.5,0.1,0.7,0.3c0.2,0.2,0.3,0.4,0.3,0.7c0,0.3-0.1,0.5-0.3,0.7
			C829.6,502.1,829.3,502.2,829.1,502.2z"/>
	</g>
</g>
</svg>