<svg width="58" height="58" viewBox="0 0 58 58" fill="none" xmlns="http://www.w3.org/2000/svg">
<path d="M29 22.0944C27.6343 22.0949 26.2994 22.5003 25.1641 23.2594C24.0289 24.0186 23.1442 25.0972 22.6219 26.3591C22.0996 27.621 21.9632 29.0094 22.23 30.3488C22.4967 31.6882 23.1546 32.9184 24.1205 33.8839C25.0864 34.8494 26.3168 35.5069 27.6563 35.7731C28.9958 36.0394 30.3842 35.9025 31.6459 35.3797C32.9075 34.857 33.9859 33.9719 34.7446 32.8363C35.5033 31.7007 35.9082 30.3657 35.9082 29C35.9068 27.1685 35.1785 25.4124 33.8832 24.1176C32.5879 22.8228 30.8315 22.0951 29 22.0944ZM45.1455 16.7863C44.7939 15.8954 44.2631 15.0862 43.5858 14.409C42.9086 13.7317 42.0994 13.2009 41.2085 12.8493C38.4897 11.7761 32.0165 12.0169 29 12.0169C25.9835 12.0169 19.5167 11.767 16.7902 12.8493C15.8993 13.2009 15.0901 13.7317 14.4129 14.409C13.7356 15.0862 13.2048 15.8954 12.8532 16.7863C11.7812 19.5051 12.0208 25.9848 12.0208 28.9987C12.0208 32.0126 11.7812 38.4846 12.8584 41.2124C13.2099 42.1033 13.7408 42.9125 14.4181 43.5897C15.0953 44.267 15.9045 44.7978 16.7954 45.1494C19.5142 46.2226 25.9874 45.9818 29.0052 45.9818C32.023 45.9818 38.4871 46.2317 41.2137 45.1494C42.1046 44.7978 42.9138 44.267 43.591 43.5897C44.2682 42.9125 44.7991 42.1033 45.1507 41.2124C46.2317 38.4936 45.9831 32.0139 45.9831 29C45.9831 25.9861 46.2317 19.5154 45.1507 16.7876L45.1455 16.7863ZM29 39.6161C26.9003 39.6161 24.8478 38.9935 23.102 37.8269C21.3562 36.6604 19.9955 35.0024 19.192 33.0626C18.3885 31.1228 18.1783 28.9882 18.5879 26.9289C18.9975 24.8696 20.0086 22.978 21.4933 21.4933C22.978 20.0086 24.8696 18.9975 26.9289 18.5879C28.9882 18.1783 31.1228 18.3885 33.0626 19.192C35.0024 19.9955 36.6604 21.3562 37.8269 23.102C38.9935 24.8478 39.6161 26.9003 39.6161 29C39.6178 30.3946 39.3443 31.7758 38.8114 33.0646C38.2785 34.3534 37.4966 35.5244 36.5105 36.5105C35.5244 37.4966 34.3534 38.2785 33.0646 38.8114C31.7758 39.3443 30.3946 39.6178 29 39.6161ZM40.0537 20.4165C39.5635 20.4168 39.0843 20.2717 38.6766 19.9995C38.269 19.7274 37.9512 19.3405 37.7634 18.8877C37.5757 18.435 37.5264 17.9367 37.6219 17.4559C37.7173 16.9752 37.9532 16.5335 38.2997 16.1869C38.6462 15.8402 39.0878 15.604 39.5685 15.5083C40.0492 15.4126 40.5475 15.4616 41.0003 15.6491C41.4532 15.8366 41.8403 16.1542 42.1126 16.5618C42.3849 16.9693 42.5303 17.4484 42.5303 17.9386C42.5317 18.2641 42.4688 18.5866 42.3452 18.8877C42.2216 19.1889 42.0398 19.4626 41.8102 19.6933C41.5806 19.924 41.3077 20.1071 41.0071 20.2321C40.7066 20.3571 40.3843 20.4215 40.0588 20.4217L40.0537 20.4165ZM51.7857 0H6.21429C4.56615 0 2.98553 0.654718 1.82012 1.82012C0.654717 2.98553 0 4.56615 0 6.21429L0 51.7857C0 53.4338 0.654717 55.0145 1.82012 56.1799C2.98553 57.3453 4.56615 58 6.21429 58H51.7857C53.4338 58 55.0145 57.3453 56.1799 56.1799C57.3453 55.0145 58 53.4338 58 51.7857V6.21429C58 4.56615 57.3453 2.98553 56.1799 1.82012C55.0145 0.654718 53.4338 0 51.7857 0ZM49.5693 37.5446C49.4023 40.8628 48.6449 43.8029 46.2226 46.2188C43.8004 48.6346 40.8628 49.4075 37.5485 49.5654C34.1294 49.7583 23.8784 49.7583 20.4592 49.5654C17.1411 49.3984 14.2113 48.6397 11.7851 46.2188C9.35897 43.7978 8.59643 40.8563 8.43848 37.5446C8.24558 34.1242 8.24558 23.8719 8.43848 20.4554C8.60549 17.1372 9.35379 14.1971 11.7851 11.7812C14.2165 9.36545 17.154 8.60161 20.4592 8.44366C23.8784 8.25076 34.1294 8.25076 37.5485 8.44366C40.8667 8.61067 43.8055 9.36933 46.2226 11.7903C48.6397 14.2113 49.4113 17.1527 49.5693 20.4709C49.7622 23.8784 49.7622 34.1216 49.5693 37.5446Z" fill="url(#paint0_linear_3_444)"/>
<defs>
<linearGradient id="paint0_linear_3_444" x1="29" y1="0" x2="29" y2="58" gradientUnits="userSpaceOnUse">
<stop stop-color="#00FFDE"/>
<stop offset="1" stop-color="#00FFDE" stop-opacity="0.46"/>
</linearGradient>
</defs>
</svg>
